<svg width="61" height="62" viewBox="0 0 61 62" fill="none" xmlns="http://www.w3.org/2000/svg">
<path d="M21.798 49.108C21.742 49.136 21.686 49.15 21.63 49.15C21.574 49.15 21.462 49.15 21.294 49.15C20.902 49.15 20.44 49.08 19.908 48.94C19.404 48.828 18.9 48.674 18.396 48.478C17.92 48.31 17.5 48.114 17.136 47.89C16.8 47.666 16.59 47.47 16.506 47.302C16.478 46.91 16.464 46.504 16.464 46.084C16.464 45.664 16.464 45.258 16.464 44.866C16.464 41.73 16.688 38.454 17.136 35.038C17.612 31.622 18.382 27.926 19.446 23.95C19.558 23.558 19.67 23.068 19.782 22.48C19.922 21.864 20.062 21.206 20.202 20.506C19.53 21.038 18.732 21.892 17.808 23.068C16.884 24.216 15.904 25.588 14.868 27.184C13.86 28.752 12.838 30.488 11.802 32.392C10.794 34.268 9.86996 36.186 9.02996 38.146C8.18996 40.078 7.46196 41.996 6.84596 43.9C6.25796 45.804 5.89396 47.568 5.75396 49.192C4.40996 48.8 3.47196 48.408 2.93996 48.016C2.43596 47.624 2.18396 47.148 2.18396 46.588C2.18396 46.084 2.33796 45.37 2.64596 44.446C2.95396 43.522 3.38796 42.43 3.94796 41.17C4.50796 39.91 5.19396 38.51 6.00596 36.97C6.81796 35.402 7.71396 33.722 8.69396 31.93C9.81396 29.886 10.906 27.968 11.97 26.176C13.062 24.384 14.126 22.76 15.162 21.304C16.198 19.848 17.206 18.588 18.186 17.524C19.194 16.46 20.188 15.648 21.168 15.088C21.56 15.088 22.078 15.186 22.722 15.382C23.394 15.578 24.038 15.816 24.654 16.096C25.298 16.376 25.858 16.67 26.334 16.978C26.838 17.258 27.118 17.496 27.174 17.692C26.782 18.476 26.32 19.652 25.788 21.22C25.256 22.788 24.71 24.566 24.15 26.554C23.618 28.542 23.1 30.656 22.596 32.896C22.12 35.108 21.742 37.236 21.462 39.28C22.106 37.74 22.848 36.144 23.688 34.492C24.556 32.812 25.466 31.16 26.418 29.536C27.37 27.884 28.336 26.288 29.316 24.748C30.324 23.208 31.304 21.808 32.256 20.548C33.208 19.26 34.09 18.14 34.902 17.188C35.742 16.236 36.484 15.536 37.128 15.088C37.52 15.088 38.038 15.186 38.682 15.382C39.354 15.578 39.998 15.816 40.614 16.096C41.258 16.376 41.818 16.67 42.294 16.978C42.798 17.258 43.078 17.496 43.134 17.692C42.238 19.288 41.454 21.234 40.782 23.53C40.11 25.826 39.536 28.234 39.06 30.754C38.612 33.274 38.262 35.78 38.01 38.272C37.786 40.736 37.674 42.948 37.674 44.908C37.674 45.552 37.674 46.224 37.674 46.924C37.674 47.624 37.702 48.352 37.758 49.108C37.366 49.108 36.89 49.052 36.33 48.94C35.798 48.856 35.266 48.73 34.734 48.562C34.23 48.394 33.768 48.198 33.348 47.974C32.928 47.778 32.634 47.554 32.466 47.302C32.438 46.91 32.424 46.504 32.424 46.084C32.424 45.664 32.424 45.258 32.424 44.866C32.424 41.73 32.648 38.454 33.096 35.038C33.572 31.622 34.342 27.926 35.406 23.95C35.518 23.558 35.644 23.026 35.784 22.354C35.924 21.682 36.064 20.982 36.204 20.254C35.42 20.646 34.524 21.402 33.516 22.522C32.536 23.614 31.528 24.958 30.492 26.554C29.484 28.122 28.476 29.872 27.468 31.804C26.488 33.736 25.592 35.71 24.78 37.726C23.996 39.714 23.324 41.702 22.764 43.69C22.232 45.65 21.91 47.456 21.798 49.108Z" fill="#E5E7EB"/>
<path d="M35.2902 38.768C35.2902 36.808 35.5142 34.89 35.9622 33.014C36.4382 31.11 37.0962 29.318 37.9362 27.638C38.7762 25.93 39.7702 24.376 40.9182 22.976C42.0942 21.548 43.3682 20.316 44.7402 19.28C46.1402 18.244 47.6242 17.446 49.1922 16.886C50.7602 16.298 52.3702 16.004 54.0222 16.004C55.9542 16.004 57.4522 16.41 58.5162 17.222C59.6082 18.034 60.1542 19.168 60.1542 20.624C60.1542 21.184 60.0702 21.758 59.9022 22.346C59.7622 22.934 59.5382 23.522 59.2302 24.11C58.9502 24.67 58.6142 25.216 58.2222 25.748C57.8302 26.28 57.3962 26.742 56.9202 27.134C56.1922 27.022 55.5622 26.7 55.0302 26.168C54.4982 25.608 54.1622 24.964 54.0222 24.236C55.0022 23.424 55.7722 22.584 56.3322 21.716C56.9202 20.82 57.2142 20.008 57.2142 19.28C57.2142 18.048 56.4442 17.432 54.9042 17.432C54.2602 17.432 53.5882 17.572 52.8882 17.852C52.2162 18.104 51.5302 18.468 50.8302 18.944C50.1302 19.42 49.4442 19.994 48.7722 20.666C48.1282 21.338 47.5262 22.08 46.9662 22.892C43.0742 28.492 41.1282 34.218 41.1282 40.07C41.1282 42.142 41.4502 43.808 42.0942 45.068C42.7382 46.328 43.5922 47.07 44.6562 47.294C45.8602 47.014 47.3862 46.244 49.2342 44.984C51.0822 43.724 53.0982 42.086 55.2822 40.07C55.5622 40.35 55.7302 40.644 55.7862 40.952C54.9742 42.016 54.1342 43.038 53.2662 44.018C52.3982 44.998 51.5302 45.894 50.6622 46.706C49.8222 47.518 48.9822 48.232 48.1422 48.848C47.3302 49.464 46.5742 49.94 45.8742 50.276C42.4022 50.22 39.7702 49.226 37.9782 47.294C36.1862 45.362 35.2902 42.52 35.2902 38.768Z" fill="#E5E7EB"/>
</svg>
