<svg xmlns="http://www.w3.org/2000/svg" version="1.1" xmlns:xlink="http://www.w3.org/1999/xlink" xmlns:svgjs="http://svgjs.dev/svgjs" width="400" height="800" preserveAspectRatio="none" viewBox="0 0 400 800"><g mask="url(&quot;#SvgjsMask1480&quot;)" fill="none"><path d="M43.45 -115.66L216.66 -15.66L216.66 184.34L43.45 284.34L-129.76 184.34L-129.76 -15.66zM216.66 184.34L389.87 284.34L389.87 484.34L216.66 584.34L43.45 484.34L43.45 284.34zM389.87 -115.66L563.08 -15.66L563.08 184.34L389.87 284.34L216.66 184.34L216.66 -15.66zM389.87 484.34L563.08 584.34L563.08 784.34L389.87 884.34L216.66 784.34L216.66 584.34zM563.08 784.34L736.29 884.34L736.29 1084.34L563.08 1184.34L389.87 1084.34L389.87 884.34z" stroke="rgba(200, 203, 209, 1)" stroke-width="2"></path></g><defs><mask id="SvgjsMask1480"><rect width="400" height="800" fill="#ffffff"></rect></mask></defs></svg>